<svg xmlns="http://www.w3.org/2000/svg" viewBox="0 0 64 64" role="img" aria-labelledby="title">
	<title>OpenAI</title>
	<g fill="none" stroke="#111111" stroke-linecap="round" stroke-linejoin="round" stroke-width="5">
		<path d="M32 8c5.2 0 9.5 3 11.3 7.5 4.8-1.2 9.9.7 12.5 5.2 2.6 4.5 1.8 9.8-1.5 13.4 3.1 3.8 3.4 9.2.8 13.7-2.6 4.5-7.6 6.6-12.4 5.5C40.9 57.8 36.7 60 32 60s-8.9-2.2-11.3-6.7c-4.8 1.1-9.8-1-12.4-5.5-2.6-4.5-2.3-9.9.8-13.7-3.3-3.6-4.1-8.9-1.5-13.4 2.6-4.5 7.7-6.4 12.5-5.2C21.5 11 26.8 8 32 8Z" />
		<path d="M32 8v16m0 16v20M8.8 21.2 22.7 29m18.6 10 13.9 7.8M8.8 42.8 22.7 35m18.6-10 13.9-7.8M22.7 29 32 24l9.3 5v10L32 44l-9.3-5Z" />
	</g>
</svg>